<svg width="161" height="36" viewBox="0 0 161 36" fill="none" xmlns="http://www.w3.org/2000/svg">
<path d="M10.816 28.128C9.10933 28.128 7.584 27.744 6.24 26.976C4.91733 26.1867 3.872 25.1307 3.104 23.808C2.35733 22.464 1.984 20.9493 1.984 19.264C1.984 17.536 2.35733 16 3.104 14.656C3.85067 13.312 4.87467 12.2667 6.176 11.52C7.47733 10.752 8.97067 10.368 10.656 10.368C11.9147 10.368 13.0667 10.6133 14.112 11.104C15.1573 11.5733 16.096 12.288 16.928 13.248C17.2267 13.5893 17.3333 13.9413 17.248 14.304C17.1627 14.6667 16.928 14.9867 16.544 15.264C16.2453 15.4773 15.9147 15.552 15.552 15.488C15.1893 15.4027 14.8587 15.2107 14.56 14.912C13.5147 13.8027 12.2133 13.248 10.656 13.248C9.568 13.248 8.608 13.504 7.776 14.016C6.944 14.5067 6.29333 15.2 5.824 16.096C5.35467 16.992 5.12 18.048 5.12 19.264C5.12 20.416 5.35467 21.44 5.824 22.336C6.31467 23.232 6.98667 23.9467 7.84 24.48C8.69333 24.992 9.68533 25.248 10.816 25.248C11.5627 25.248 12.2133 25.1627 12.768 24.992C13.344 24.8 13.8667 24.512 14.336 24.128C14.6773 23.8507 15.0293 23.7013 15.392 23.68C15.7547 23.6373 16.0747 23.7333 16.352 23.968C16.7147 24.2667 16.9173 24.608 16.96 24.992C17.0027 25.3547 16.8747 25.6853 16.576 25.984C15.04 27.4133 13.12 28.128 10.816 28.128Z" fill="#316962"/>
<circle cx="2.5" cy="2.5" r="1.75" transform="matrix(-1 0 0 1 20 17)" stroke="#DD720F" stroke-width="1.5"/>
<line x1="19" y1="19.5" x2="25" y2="19.5" stroke="#DD720F"/>
<path d="M32.816 28.128C31.088 28.128 29.5627 27.7547 28.24 27.008C26.9173 26.24 25.872 25.1947 25.104 23.872C24.3573 22.528 23.984 20.992 23.984 19.264C23.984 17.5147 24.3573 15.9787 25.104 14.656C25.872 13.312 26.9173 12.2667 28.24 11.52C29.5627 10.752 31.088 10.368 32.816 10.368C34.5227 10.368 36.0373 10.752 37.36 11.52C38.6827 12.2667 39.7173 13.312 40.464 14.656C41.232 15.9787 41.616 17.5147 41.616 19.264C41.616 20.992 41.2427 22.528 40.496 23.872C39.7493 25.1947 38.7147 26.24 37.392 27.008C36.0693 27.7547 34.544 28.128 32.816 28.128ZM32.816 25.248C33.9253 25.248 34.9067 24.992 35.76 24.48C36.6133 23.968 37.2747 23.264 37.744 22.368C38.2347 21.472 38.48 20.4373 38.48 19.264C38.48 18.0907 38.2347 17.056 37.744 16.16C37.2747 15.2427 36.6133 14.528 35.76 14.016C34.9067 13.504 33.9253 13.248 32.816 13.248C31.7067 13.248 30.7253 13.504 29.872 14.016C29.0187 14.528 28.3467 15.2427 27.856 16.16C27.3653 17.056 27.12 18.0907 27.12 19.264C27.12 20.4373 27.3653 21.472 27.856 22.368C28.3467 23.264 29.0187 23.968 29.872 24.48C30.7253 24.992 31.7067 25.248 32.816 25.248Z" fill="#DD720F"/>
<path d="M61.2578 28.032C60.7884 28.032 60.3938 27.8827 60.0738 27.584C59.7751 27.264 59.6258 26.8693 59.6258 26.4V18.528C59.6258 17.312 59.4018 16.32 58.9538 15.552C58.5058 14.784 57.8978 14.2187 57.1298 13.856C56.3831 13.472 55.5191 13.28 54.5378 13.28C53.6418 13.28 52.8311 13.4613 52.1058 13.824C51.3804 14.1867 50.8044 14.6773 50.3778 15.296C49.9511 15.8933 49.7378 16.5867 49.7378 17.376H47.7218C47.7218 16.032 48.0418 14.8373 48.6818 13.792C49.3431 12.7253 50.2391 11.8827 51.3698 11.264C52.5004 10.6453 53.7698 10.336 55.1778 10.336C56.6498 10.336 57.9618 10.656 59.1138 11.296C60.2871 11.9147 61.2044 12.832 61.8658 14.048C62.5484 15.264 62.8898 16.7573 62.8898 18.528V26.4C62.8898 26.8693 62.7298 27.264 62.4097 27.584C62.1111 27.8827 61.7271 28.032 61.2578 28.032ZM48.1058 28.032C47.6364 28.032 47.2418 27.8827 46.9218 27.584C46.6231 27.264 46.4738 26.8693 46.4738 26.4V12.128C46.4738 11.6373 46.6231 11.2427 46.9218 10.944C47.2418 10.6453 47.6364 10.496 48.1058 10.496C48.5964 10.496 48.9911 10.6453 49.2898 10.944C49.5884 11.2427 49.7378 11.6373 49.7378 12.128V26.4C49.7378 26.8693 49.5884 27.264 49.2898 27.584C48.9911 27.8827 48.5964 28.032 48.1058 28.032ZM83.0703 28.032C82.6009 28.032 82.2063 27.8827 81.8863 27.584C81.5876 27.264 81.4383 26.8693 81.4383 26.4V18.528C81.4383 17.312 81.2143 16.32 80.7663 15.552C80.3183 14.784 79.7103 14.2187 78.9423 13.856C78.1956 13.472 77.3316 13.28 76.3503 13.28C75.4543 13.28 74.6436 13.4613 73.9183 13.824C73.1929 14.1867 72.6169 14.6773 72.1903 15.296C71.7636 15.8933 71.5503 16.5867 71.5503 17.376H69.5343C69.5343 16.032 69.8543 14.8373 70.4943 13.792C71.1556 12.7253 72.0516 11.8827 73.1823 11.264C74.3129 10.6453 75.5823 10.336 76.9903 10.336C78.4623 10.336 79.7743 10.656 80.9263 11.296C82.0996 11.9147 83.0169 12.832 83.6783 14.048C84.3609 15.264 84.7023 16.7573 84.7023 18.528V26.4C84.7023 26.8693 84.5423 27.264 84.2222 27.584C83.9236 27.8827 83.5396 28.032 83.0703 28.032ZM69.9183 28.032C69.4489 28.032 69.0543 27.8827 68.7343 27.584C68.4356 27.264 68.2863 26.8693 68.2863 26.4V12.128C68.2863 11.6373 68.4356 11.2427 68.7343 10.944C69.0543 10.6453 69.4489 10.496 69.9183 10.496C70.4089 10.496 70.8036 10.6453 71.1023 10.944C71.4009 11.2427 71.5503 11.6373 71.5503 12.128V26.4C71.5503 26.8693 71.4009 27.264 71.1023 27.584C70.8036 27.8827 70.4089 28.032 69.9183 28.032ZM98.3228 28.128C96.5521 28.128 94.9734 27.7547 93.5868 27.008C92.2214 26.24 91.1441 25.1947 90.3548 23.872C89.5868 22.528 89.2028 20.992 89.2028 19.264C89.2028 17.5147 89.5654 15.9787 90.2908 14.656C91.0374 13.312 92.0614 12.2667 93.3628 11.52C94.6641 10.752 96.1574 10.368 97.8428 10.368C99.5068 10.368 100.936 10.7413 102.131 11.488C103.325 12.2133 104.232 13.2267 104.851 14.528C105.491 15.808 105.811 17.2907 105.811 18.976C105.811 19.3813 105.672 19.7227 105.395 20C105.117 20.256 104.765 20.384 104.339 20.384H91.4427V17.824H104.243L102.931 18.72C102.909 17.6533 102.696 16.704 102.291 15.872C101.885 15.0187 101.309 14.3467 100.563 13.856C99.8161 13.3653 98.9094 13.12 97.8428 13.12C96.6268 13.12 95.5814 13.3867 94.7068 13.92C93.8534 14.4533 93.2028 15.1893 92.7548 16.128C92.3068 17.0453 92.0828 18.0907 92.0828 19.264C92.0828 20.4373 92.3494 21.4827 92.8828 22.4C93.4161 23.3173 94.1521 24.0427 95.0908 24.576C96.0294 25.1093 97.1068 25.376 98.3228 25.376C98.9841 25.376 99.6561 25.2587 100.339 25.024C101.043 24.768 101.608 24.48 102.035 24.16C102.355 23.9253 102.696 23.808 103.059 23.808C103.443 23.7867 103.773 23.8933 104.051 24.128C104.413 24.448 104.605 24.8 104.627 25.184C104.648 25.568 104.477 25.8987 104.115 26.176C103.389 26.752 102.483 27.2213 101.395 27.584C100.328 27.9467 99.3041 28.128 98.3228 28.128ZM117.285 28.128C115.578 28.128 114.053 27.744 112.709 26.976C111.386 26.1867 110.341 25.1307 109.573 23.808C108.826 22.464 108.453 20.9493 108.453 19.264C108.453 17.536 108.826 16 109.573 14.656C110.319 13.312 111.343 12.2667 112.645 11.52C113.946 10.752 115.439 10.368 117.125 10.368C118.383 10.368 119.535 10.6133 120.581 11.104C121.626 11.5733 122.565 12.288 123.397 13.248C123.695 13.5893 123.802 13.9413 123.717 14.304C123.631 14.6667 123.397 14.9867 123.013 15.264C122.714 15.4773 122.383 15.552 122.021 15.488C121.658 15.4027 121.327 15.2107 121.029 14.912C119.983 13.8027 118.682 13.248 117.125 13.248C116.037 13.248 115.077 13.504 114.245 14.016C113.413 14.5067 112.762 15.2 112.293 16.096C111.823 16.992 111.589 18.048 111.589 19.264C111.589 20.416 111.823 21.44 112.293 22.336C112.783 23.232 113.455 23.9467 114.309 24.48C115.162 24.992 116.154 25.248 117.285 25.248C118.031 25.248 118.682 25.1627 119.237 24.992C119.813 24.8 120.335 24.512 120.805 24.128C121.146 23.8507 121.498 23.7013 121.861 23.68C122.223 23.6373 122.543 23.7333 122.821 23.968C123.183 24.2667 123.386 24.608 123.429 24.992C123.471 25.3547 123.343 25.6853 123.045 25.984C121.509 27.4133 119.589 28.128 117.285 28.128ZM134.936 28C133.869 28 132.909 27.7333 132.056 27.2C131.202 26.6453 130.53 25.8987 130.04 24.96C129.549 24.0213 129.304 22.9653 129.304 21.792V6.528C129.304 6.05867 129.453 5.67467 129.752 5.376C130.05 5.07733 130.434 4.928 130.904 4.928C131.373 4.928 131.757 5.07733 132.056 5.376C132.354 5.67467 132.504 6.05867 132.504 6.528V21.792C132.504 22.6453 132.738 23.36 133.208 23.936C133.677 24.512 134.253 24.8 134.936 24.8H136.024C136.408 24.8 136.728 24.9493 136.984 25.248C137.261 25.5467 137.4 25.9307 137.4 26.4C137.4 26.8693 137.218 27.2533 136.856 27.552C136.514 27.8507 136.066 28 135.512 28H134.936ZM127.832 13.888C127.384 13.888 127.021 13.76 126.743 13.504C126.466 13.248 126.328 12.928 126.328 12.544C126.328 12.1173 126.466 11.776 126.743 11.52C127.021 11.264 127.384 11.136 127.832 11.136H135.224C135.672 11.136 136.034 11.264 136.312 11.52C136.589 11.776 136.728 12.1173 136.728 12.544C136.728 12.928 136.589 13.248 136.312 13.504C136.034 13.76 135.672 13.888 135.224 13.888H127.832ZM148.707 28.128C147.15 28.128 145.753 27.744 144.515 26.976C143.278 26.1867 142.297 25.1307 141.571 23.808C140.867 22.464 140.515 20.9493 140.515 19.264C140.515 17.5787 140.899 16.064 141.667 14.72C142.457 13.376 143.513 12.32 144.835 11.552C146.179 10.7627 147.683 10.368 149.347 10.368C151.011 10.368 152.505 10.7627 153.827 11.552C155.15 12.32 156.195 13.376 156.963 14.72C157.753 16.064 158.147 17.5787 158.147 19.264H156.899C156.899 20.9493 156.537 22.464 155.811 23.808C155.107 25.1307 154.137 26.1867 152.899 26.976C151.662 27.744 150.265 28.128 148.707 28.128ZM149.347 25.248C150.435 25.248 151.406 24.992 152.259 24.48C153.113 23.9467 153.785 23.232 154.275 22.336C154.766 21.4187 155.011 20.3947 155.011 19.264C155.011 18.112 154.766 17.088 154.275 16.192C153.785 15.2747 153.113 14.56 152.259 14.048C151.406 13.5147 150.435 13.248 149.347 13.248C148.281 13.248 147.31 13.5147 146.435 14.048C145.582 14.56 144.899 15.2747 144.387 16.192C143.897 17.088 143.651 18.112 143.651 19.264C143.651 20.3947 143.897 21.4187 144.387 22.336C144.899 23.232 145.582 23.9467 146.435 24.48C147.31 24.992 148.281 25.248 149.347 25.248ZM156.515 28.032C156.046 28.032 155.651 27.8827 155.331 27.584C155.033 27.264 154.883 26.8693 154.883 26.4V21.504L155.491 18.112L158.147 19.264V26.4C158.147 26.8693 157.987 27.264 157.667 27.584C157.369 27.8827 156.985 28.032 156.515 28.032Z" fill="#316962"/>
</svg>
